<?xml version="1.0" standalone="no"?>
<!DOCTYPE svg PUBLIC "-//W3C//DTD SVG 20010904//EN"
 "http://www.w3.org/TR/2001/REC-SVG-20010904/DTD/svg10.dtd">
<svg version="1.0" xmlns="http://www.w3.org/2000/svg"
 width="400.000000pt" height="298.000000pt" viewBox="0 0 400.000000 298.000000"
 preserveAspectRatio="xMidYMid meet">
<g transform="translate(0.000000,298.000000) scale(0.100000,-0.100000)" stroke="none" fill="#ffffff">
<path d="M50 2963 c0 -5 -7 -51 -16 -103 -10 -56 -17 -153 -17 -235 -1 -123 2
-147 22 -200 77 -200 240 -289 627 -345 82 -12 160 -28 172 -37 24 -15 24 -15
-87 -128 -131 -133 -161 -186 -161 -281 0 -46 5 -68 19 -86 43 -54 596 -308
672 -308 18 0 40 12 63 33 l35 34 27 -81 c64 -193 136 -266 261 -266 94 1 150
35 338 205 191 173 279 220 400 212 39 -3 80 -8 91 -12 21 -7 22 -4 26 102 3
92 8 115 31 159 35 69 104 128 180 154 81 28 181 36 246 20 74 -17 164 -79
196 -134 43 -73 43 -127 1 -302 -41 -170 -44 -239 -16 -301 10 -24 17 -43 15
-43 -24 0 -118 47 -143 71 -51 50 -46 92 32 241 105 201 109 259 28 349 -26
29 -65 60 -87 70 -82 38 -235 15 -338 -51 -37 -23 -54 -43 -75 -88 l-27 -57 0
-250 0 -250 -29 -58 c-39 -81 -126 -170 -253 -261 -60 -42 -118 -92 -131 -110
-34 -49 -52 -119 -52 -198 0 -67 1 -69 31 -86 17 -9 45 -28 60 -41 l29 -23 71
58 c39 31 87 77 109 102 34 40 37 48 29 76 -24 84 2 172 67 223 84 65 136 72
178 22 31 -37 32 -53 7 -125 -31 -87 -100 -173 -242 -301 -73 -65 -137 -125
-142 -134 -8 -12 -3 -25 18 -53 l27 -36 -26 -34 c-38 -51 -34 -62 24 -69 50
-6 278 29 350 54 62 21 72 35 97 119 42 147 115 270 233 394 111 116 176 162
292 206 147 56 143 49 144 238 1 127 5 172 23 237 42 156 146 334 252 429 38
35 39 37 25 64 -22 43 -108 118 -173 151 -126 63 -300 85 -459 57 -50 -8 -100
-18 -110 -22 -11 -3 -3 9 19 29 21 20 55 39 75 44 42 11 42 11 1 99 -56 119
-169 207 -324 253 -38 12 -157 34 -263 50 -284 43 -329 72 -442 281 -30 57
-67 111 -80 122 -44 32 -200 48 -485 48 -290 0 -314 5 -368 70 -15 18 -30 30
-34 27 -11 -12 16 -232 36 -298 36 -114 102 -183 208 -215 26 -8 100 -19 164
-24 123 -10 152 -16 143 -31 -9 -15 -293 -11 -357 6 -114 30 -186 83 -232 174
-34 67 -92 115 -167 136 -54 15 -102 17 -367 14 -279 -3 -310 -2 -349 15 -49
21 -78 64 -112 169 -19 60 -30 81 -30 60z m2480 -806 c113 -46 205 -89 205
-94 0 -5 -37 -49 -82 -98 l-82 -88 -48 18 c-26 10 -72 29 -102 42 l-54 23 23
25 c13 14 21 27 19 29 -9 9 -101 46 -114 46 -12 0 -355 -361 -355 -373 0 -2
27 -15 61 -27 l60 -23 55 54 c30 29 54 56 54 59 0 4 -14 13 -30 21 l-31 14 63
68 63 69 138 -58 c76 -31 136 -60 135 -64 -2 -5 -73 -83 -158 -175 -85 -92
-164 -179 -176 -193 l-20 -25 -190 78 c-230 94 -275 118 -298 156 -35 59 -32
63 263 382 202 218 220 230 326 224 60 -4 101 -17 275 -90z m-1020 34 c239
-97 321 -134 318 -142 -6 -18 -160 -179 -171 -179 -10 0 -185 68 -196 77 -3 2
5 13 17 26 12 13 22 26 22 29 0 11 -121 51 -130 42 -5 -5 -83 -90 -174 -189
l-166 -180 43 -18 c90 -40 81 -42 138 24 28 33 50 61 48 63 -2 2 -16 10 -31
17 l-26 14 63 67 64 67 135 -56 c75 -32 136 -60 136 -64 0 -10 -351 -389 -360
-389 -9 0 -375 152 -411 170 -51 26 -79 62 -79 100 0 44 35 88 276 344 109
115 185 188 214 204 65 34 136 27 270 -27z"/>
<path d="M2124 2878 c9 -116 26 -180 67 -242 65 -98 155 -139 352 -161 371
-42 521 -123 628 -339 l48 -100 98 3 c108 2 182 -13 263 -54 51 -26 60 -21 38
18 -6 12 -15 81 -18 154 -6 127 -8 135 -44 209 -53 106 -152 206 -261 261
-161 82 -297 110 -605 123 -237 10 -305 21 -397 66 -48 23 -153 123 -153 145
0 5 -5 9 -11 9 -8 0 -10 -26 -5 -92z"/>
<path d="M3280 2888 c1 -115 17 -146 124 -237 123 -105 211 -203 248 -279 31
-62 32 -71 34 -186 1 -80 6 -135 16 -164 16 -42 63 -125 98 -171 l18 -24 7 64
c11 98 36 167 98 268 63 104 75 154 59 237 -14 65 -67 191 -94 220 -10 12 -40
33 -66 47 -46 24 -66 29 -242 63 -47 8 -100 22 -118 31 -42 20 -117 104 -148
165 -13 26 -27 48 -29 48 -3 0 -5 -37 -5 -82z"/>
</g>
</svg>
